# xmcd
#
# Track frame offsets:
#	150
#	4180
#	16191
#	32802
#	45671
#	60897
#	73038
#	85181
#	98944
#	111196
#	122945
#	133316
#	145472
#	160338
#	173887
#	188316
#	206771
#	221259
#	233883
#	247309
#	260316
#	274320
#	287734
#
# Disc length: 4011 seconds
#
# Revision: 1
# Processed by: cddbd v1.5.2PL0 Copyright (c) Steve Scherf et al.
# Submitted via: EasyCDDAExtractor 10.5.1.1
#
DISCID=540fa917
DTITLE=Merle Haggard - It's All In The Movies
DYEAR=1970
DGENRE=Country
TTITLE0=Brown Skinned Girl
TTITLE1=Right Or Wrong
TTITLE2=Brain Cloudy Blues
TTITLE3=Stay A Little Longer
TTITLE4=Misery
TTITLE5=Time Changes Everything
TTITLE6=San Antonio Rose
TTITLE7=I Knew The Moment I Lost You
TTITLE8=Roly Poly
TTITLE9=Old Fashioned Love
TTITLE10=Corrine Corrina
TTITLE11=Take Me Back To Tulsa
TTITLE12=It's All In The Movies
TTITLE13=Nothing's Worse Than Losing
TTITLE14=After Loving You
TTITLE15=Stingeree
TTITLE16=I Know An Ending
TTITLE17=This Is The Song We Sing
TTITLE18=Living With The Shades Pulled
TTITLE19=Hag's Dixie Blues
TTITLE20=Let's Stop Pretending
TTITLE21=Cotton Patch Blues
TTITLE22=The Seeker
EXTD=
EXTT0=
EXTT1=
EXTT2=
EXTT3=
EXTT4=
EXTT5=
EXTT6=
EXTT7=
EXTT8=
EXTT9=
EXTT10=
EXTT11=
EXTT12=
EXTT13=
EXTT14=
EXTT15=
EXTT16=
EXTT17=
EXTT18=
EXTT19=
EXTT20=
EXTT21=
EXTT22=
PLAYORDER=
